<!DOCTYPE svg PUBLIC "-//W3C//DTD SVG 20010904//EN" "http://www.w3.org/TR/2001/REC-SVG-20010904/DTD/svg10.dtd">
<svg version="1.0" xmlns="http://www.w3.org/2000/svg" width="577px" height="564px" viewBox="0 0 5770 5640" preserveAspectRatio="xMidYMid meet">
<g id="layer101" fill="#020202" stroke="none">
 <path d="M2680 5437 c-365 -359 -635 -601 -1190 -1066 -433 -363 -601 -512 -770 -681 -381 -381 -581 -726 -664 -1142 -14 -68 -30 -167 -35 -220 -14 -124 -14 -438 -1 -548 50 -414 230 -842 488 -1161 85 -105 261 -271 368 -348 112 -79 321 -182 439 -216 115 -32 268 -55 370 -55 370 0 745 160 1100 469 52 44 97 81 100 81 3 0 48 -37 100 -81 355 -309 730 -469 1100 -469 102 0 255 23 370 55 118 34 327 137 439 216 107 77 283 243 368 348 258 319 438 747 488 1161 13 110 13 424 -1 548 -57 525 -261 923 -699 1362 -169 169 -337 318 -770 681 -555 465 -824 706 -1190 1066 l-205 201 -205 -201z"/>
 </g>
<g id="layer102" fill="#ececec" stroke="none">
 <path d="M2710 5357 c-370 -359 -656 -613 -1240 -1104 -594 -498 -790 -687 -986 -946 -79 -105 -194 -292 -194 -316 0 -46 104 -120 240 -170 414 -152 1285 -241 2355 -241 1158 0 2065 103 2434 276 95 44 161 99 161 133 0 26 -111 208 -194 318 -196 259 -392 448 -986 946 -592 497 -815 695 -1195 1062 l-220 212 -175 -170z"/>
 <path d="M211 2820 c-38 -100 -77 -242 -96 -351 -22 -124 -29 -114 78 -116 235 -4 580 -120 1004 -338 752 -387 1406 -913 1579 -1270 19 -38 37 -84 40 -102 5 -28 9 -31 24 -23 24 13 66 13 90 0 15 -8 19 -5 24 23 9 49 67 163 126 247 67 95 332 359 470 468 254 199 493 361 770 520 519 298 976 471 1257 475 75 2 93 5 93 17 0 33 -31 187 -55 276 -25 92 -83 254 -91 254 -2 0 -25 -16 -51 -36 -132 -101 -356 -172 -733 -233 -505 -82 -1097 -121 -1855 -121 -1335 0 -2299 132 -2588 353 -26 21 -49 37 -51 37 -2 0 -18 -36 -35 -80z"/>
 <path d="M118 2283 c-26 -4 -26 -6 -34 -101 -10 -135 2 -355 26 -497 137 -804 714 -1476 1364 -1590 114 -19 318 -19 432 0 235 41 495 164 719 340 133 105 138 111 131 159 -60 374 -987 1109 -1899 1505 -297 129 -609 207 -739 184z"/>
 <path d="M5520 2284 c-360 -45 -967 -319 -1520 -687 -566 -377 -948 -766 -986 -1003 -7 -48 -2 -54 131 -159 224 -176 484 -299 719 -340 114 -19 318 -19 432 0 700 123 1300 880 1385 1750 10 105 7 420 -4 431 -6 7 -121 12 -157 8z"/>
 </g>

</svg>