<!DOCTYPE svg PUBLIC "-//W3C//DTD SVG 20010904//EN" "http://www.w3.org/TR/2001/REC-SVG-20010904/DTD/svg10.dtd">
<svg version="1.0" xmlns="http://www.w3.org/2000/svg" width="726px" height="670px" viewBox="0 0 7260 6700" preserveAspectRatio="xMidYMid meet">
<g id="layer101" fill="#000000" stroke="none">
 <path d="M471 6683 c-62 -22 -133 -95 -162 -169 l-24 -59 -5 -773 -5 -774 -28 -24 c-15 -13 -38 -24 -51 -24 -43 0 -144 -59 -168 -98 -35 -57 -32 -147 8 -232 40 -84 645 -1014 692 -1062 98 -103 251 -101 348 3 46 49 704 1085 726 1142 25 66 24 136 -5 177 -32 49 -77 71 -169 84 -121 17 -122 19 -126 254 -4 230 2 287 34 318 l23 24 2053 -2 c2212 -3 2079 0 2116 -55 16 -25 18 -79 23 -633 4 -432 9 -616 18 -643 18 -55 74 -112 129 -133 40 -14 99 -18 415 -22 202 -2 388 -1 414 3 117 17 142 147 37 191 -27 11 -110 14 -407 14 -336 0 -376 2 -388 17 -11 13 -15 134 -19 657 l-5 641 -24 48 c-12 26 -38 59 -57 73 -74 57 52 54 -2239 54 l-2111 0 -52 -26 c-58 -29 -96 -69 -126 -134 -20 -43 -21 -61 -21 -400 0 -385 1 -392 56 -432 16 -12 59 -24 110 -31 104 -15 107 -24 46 -115 -24 -37 -167 -260 -317 -497 -150 -236 -278 -433 -284 -437 -6 -4 -18 -8 -27 -8 -17 0 -615 905 -644 974 -21 50 -8 72 47 81 100 15 143 40 176 100 15 27 17 111 22 845 3 448 9 823 14 833 24 49 -47 47 1641 47 1351 0 1581 2 1610 14 69 29 84 125 29 177 l-26 24 -1626 2 c-1458 1 -1632 0 -1671 -14z"/>
 <path d="M6025 6696 c-5 -2 -22 -7 -38 -10 -45 -10 -67 -40 -67 -92 0 -37 5 -51 29 -75 l29 -29 374 0 c307 0 378 -3 394 -14 18 -14 19 -35 24 -626 l5 -612 24 -19 c48 -39 104 -37 147 6 l24 24 0 643 c0 433 -4 656 -11 682 -14 50 -54 91 -105 106 -37 12 -803 26 -829 16z"/>
 <path d="M6253 3280 c-28 -16 -63 -44 -76 -62 -64 -84 -692 -1079 -709 -1121 -24 -63 -24 -143 2 -184 26 -44 88 -73 173 -82 59 -6 74 -12 94 -35 23 -27 23 -30 23 -267 l0 -241 -31 -30 -31 -31 -2051 7 c-1966 6 -2053 7 -2077 25 -14 10 -30 33 -36 52 -7 22 -13 233 -17 619 -7 647 -8 658 -69 717 -70 67 -71 68 -503 71 -214 2 -404 1 -421 -3 -50 -9 -84 -47 -84 -93 0 -23 7 -49 18 -61 37 -47 71 -50 449 -44 316 6 354 5 377 -10 l25 -17 3 -632 c3 -568 5 -637 21 -676 27 -70 57 -103 116 -131 l56 -26 2130 0 2130 0 41 22 c22 12 56 39 76 61 64 70 67 96 70 482 3 316 2 348 -15 378 -24 44 -69 70 -136 77 -93 10 -101 13 -101 39 0 13 13 41 28 62 16 21 158 243 316 491 158 249 295 457 305 463 13 6 23 5 33 -3 14 -11 521 -780 605 -916 34 -57 42 -102 21 -118 -7 -5 -42 -15 -78 -21 -73 -13 -106 -33 -135 -83 -19 -32 -20 -58 -26 -464 -4 -236 -7 -606 -8 -822 l-1 -392 -24 -28 -24 -28 -1607 -5 -1607 -5 -29 -33 c-55 -61 -30 -150 49 -172 25 -6 567 -10 1623 -10 1785 0 1652 -6 1739 76 27 25 58 68 71 97 24 52 24 55 30 557 4 278 7 629 8 781 l1 276 26 26 c14 14 42 28 62 32 55 9 133 55 160 95 21 31 23 43 20 115 -4 60 -11 92 -30 130 -43 84 -669 1038 -697 1063 -79 70 -190 82 -278 32z"/>
 <path d="M328 1481 l-33 -29 0 -649 c0 -643 0 -648 22 -695 16 -35 32 -53 65 -70 l43 -23 438 0 439 0 24 28 c29 33 32 91 8 126 -34 48 -57 51 -441 51 -208 0 -364 4 -373 10 -13 8 -16 92 -20 621 l-5 611 -28 24 c-41 35 -97 33 -139 -5z"/>
 </g>

</svg>